<svg width="794.506" height="794.738" viewBox="0 0 210.213 210.274" xml:space="preserve" xmlns="http://www.w3.org/2000/svg">
    <path style="fill:#ff7901;stroke:none;stroke-width:.264583" d="M99.924 8.36c-7.487.983-14.846 1.359-22.225 3.297-21.893 5.749-41.58 18.591-55.708 36.278C14.167 57.73 8.364 68.88 4.409 80.743.75 91.728-1.765 104.611-.663 116.198c1.467 15.407 3.814 29.534 10.697 43.656 19.484 39.975 63.862 63.048 107.617 57.604 48.954-6.091 89.362-48.446 91.536-98.085 2.164-49.433-30.22-95.628-78.836-107.785-9.487-2.372-20.625-4.515-30.427-3.228m-.794 9.224c11.096-1.31 23.285 1.056 33.867 4.231 10.747 3.225 21.066 8.556 29.898 15.481 8.804 6.904 16.482 15.199 22.475 24.662 21.948 34.653 18.72 80.392-6.865 112.183-6.664 8.28-15.028 15.408-24.077 20.952-11.84 7.255-25.34 11.92-39.158 13.4-47.125 5.049-92.398-25.215-104.01-71.658-3.345-13.383-3.578-27.185-1.316-40.746 1.786-10.699 5.67-21.333 11.137-30.691 6.306-10.795 14.473-20.244 24.339-27.934 16.009-12.478 33.949-17.549 53.71-19.88m4.234 8.768c-7.533.952-14.794 1.068-22.225 3.102-20.784 5.69-39.005 19.348-50.522 37.531-5.33 8.415-9.092 17.8-11.239 27.517-9.397 42.546 15.199 86.652 56.469 100.98 12.7 4.409 26.401 5.63 39.687 4.018 44.066-5.343 77.592-45.81 75.661-89.917-1.593-36.365-26.581-68.684-61.373-79.382-7.955-2.446-18.095-4.907-26.458-3.85m53.445 28.728c-.112 5.465-1.621 12.273-6.35 15.599-1.855 1.305-5.78 2.685-7.79.884-1.966-1.763-1.174-5.45-.204-7.487 2.477-5.204 8.834-8.254 14.344-8.996m-20.637 4.498c1.087 2.614 2.192 5.121 2.667 7.937.613 3.642.369 7.833-2.013 10.844-1.536 1.941-4.309 3.217-6.45 1.45-4.989-4.114-1.586-12.504 1.567-16.527 1.119-1.43 2.427-3.198 4.229-3.704m-12.199 13.957c1.649-.39 2.71 4.493 3.009 5.622 1.225 4.633 1.36 13.64-4.833 14.978-3.248.702-5.082-2.716-5.477-5.453-.634-4.4 1.345-8.498 3.952-11.906.794-1.038 1.994-2.92 3.35-3.24m32.57 3.24c-.99 5.124-7.849 9.679-12.7 10.353-2.36.328-5.543.058-6.983-2.155-1.74-2.674.924-5.987 3.015-7.43 4.696-3.239 11.544-2.397 16.669-.768m16.14 69.85c-1.526 4.102-6.264 6.216-10.32 6.9-10.25 1.727-18.831-3.347-26.722-9.183-20.717-15.323-41.687-30.304-62.442-45.576-8.61-6.336-18.147-15.34-29.633-14.837-2.762.12-5.112 1.234-7.673 2.106 1.134-3.82 5.678-5.885 9.26-6.707 10.152-2.33 19.083 2.7 26.988 8.407 21.155 15.274 42.219 30.694 63.235 46.159 8.473 6.235 18.048 15.328 29.369 14.837 2.871-.125 5.272-1.2 7.937-2.106m-60.088-59.552c1.59-.209 2.623 4.45 2.935 5.577 1.288 4.645 1.32 14.823-5.553 15.285-2.747.185-4.23-2.965-4.64-5.231-.822-4.561 1.187-8.943 3.965-12.436.749-.94 1.993-3.025 3.293-3.195m32.572 3.195c-.318 1.645-1.437 2.975-2.498 4.234-3.383 4.015-12.151 9.832-17.021 4.47-1.452-1.599-.709-3.954.413-5.529 2.317-3.252 6.545-4.444 10.375-4.492 2.993-.038 5.812.888 8.73 1.317m-11.376 13.759c-1.254 5.288-8.494 10.31-13.759 10.319-2.196.003-4.736-.096-6.113-2.142-1.714-2.546.923-5.935 2.938-7.325 4.918-3.392 11.548-2.37 16.934-.852m-30.957 22.225-3.267 5.027-7.58 9.79c6.47-1.484 18.998-3.46 22.225 4.762-4.648-.466-7.863-1.876-12.7-.731-13.777 3.261-22.134 16.925-34.132 23.438-4.4 2.39-9.605 3.663-14.552 2.455-1.89-.461-4.023-1.172-5.027-2.937 2.81.023 5.173.265 7.938-.583 7.716-2.37 12.73-8.602 17.431-14.763a1492.926 1492.926 0 0 1 11.882-15.346c2.951-3.765 5.854-7.573 8.756-11.377.768-1.007 2.11-3.544 3.474-3.726 1.693-.225 4.234 3.073 5.552 3.99m-11.112 14.817.265.265z" transform="translate(.924 -7.973)"/>
</svg>
