<svg width="336.919" height="337.465" viewBox="0 0 89.143 89.288" xml:space="preserve" xmlns="http://www.w3.org/2000/svg">
    <path style="fill:#000;stroke-width:.264583" d="M75.629 199.722c-7.713-.556-15.748-3.48-22.32-8.122-3.214-2.271-8.094-7.148-10.379-10.375-2.134-3.014-4.93-8.494-6.006-11.774-4.96-15.12-1.732-31.238 8.7-43.443 5.966-6.98 14.687-12.177 23.825-14.199 4.487-.993 9.088-1.338 13.03-.978 6.54.596 11.201 1.891 16.736 4.649 4.538 2.261 7.803 4.624 11.509 8.33 9.28 9.281 13.873 21.58 12.944 34.67-.772 10.899-5.181 20.539-12.944 28.301-6.151 6.152-13.425 10.175-21.696 12-2.805.62-8.223 1.278-9.79 1.19-.363-.02-1.988-.132-3.61-.249zm4.143-5.974c1.344-.794 1.45-1.304 1.45-6.94v-5.186l-1.259-.08c-.96-.062-1.297.019-1.421.341-.14.366-.221.373-.593.052-1.229-1.059-3.242-.533-3.89 1.017-.528 1.264-.558 5-.05 6.217.212.506.597 1.096.856 1.31.671.557 2.363.497 3.03-.107.544-.492.55-.49.55.222 0 .396-.123.95-.274 1.232-.325.606-1.266.68-1.483.115-.197-.514-3.01-.576-2.996-.066.017.6.7 1.59 1.342 1.946.923.511 3.825.467 4.738-.073zm-3.019-5.533c-.262-.683-.182-3.544.114-4.097.383-.717 1.014-.637 1.32.167.34.894.33 3.19-.016 3.837-.33.617-1.195.674-1.418.093zm-6.108 2.647c.853-.405 1.714-1.711 1.714-2.6 0-.335-.296-.422-1.437-.422-1.372 0-1.442.033-1.522.727-.066.578-.22.728-.745.728-.596 0-.669-.118-.739-1.19l-.078-1.191H72.227l.089-.778c.181-1.597-.236-3.125-1.066-3.9-.69-.645-1.012-.746-2.371-.746-3.067 0-4.054 1.159-4.058 4.762-.003 2.637.407 3.823 1.564 4.528 1.01.616 3.052.655 4.26.082zm-2.902-5.91c-.082-.134-.03-.559.117-.945.356-.937 1.343-.828 1.61.178.104.391.122.778.04.86-.242.242-1.604.17-1.767-.094zm19.045 5.9c.401-.262.653-.313.653-.132 0 .182.569.295 1.483.295 1.244 0 1.458-.068 1.323-.419-.088-.23-.16-2.025-.16-3.989v-3.57l-.774-.774c-.709-.709-.93-.773-2.642-.773-1.668 0-1.953.078-2.666.727-.44.4-.873 1.115-.964 1.588l-.164.86h1.325c1.101 0 1.348-.09 1.463-.528.193-.74.934-.957 1.461-.43.644.644.127 1.267-1.368 1.648-2.399.612-3.25 1.66-2.986 3.675.253 1.94 2.371 2.9 4.016 1.822zm-1.096-2.067c-.315-.82.033-1.572.889-1.92.859-.35.86-.35.86.462 0 .447-.124 1.042-.274 1.324-.32.597-1.265.683-1.475.134zm-22.89-2.13c.6-2.399 1.09-4.55 1.09-4.783 0-.346-.25-.403-1.388-.319l-1.39.103-.549 3.158-.55 3.158-.308-1.852c-.17-1.019-.4-2.447-.513-3.175l-.206-1.323-1.289-.082c-.708-.045-1.383.014-1.499.132-.116.118.28 2.268.88 4.779l1.09 4.564h3.54zm32.05 1.383c.005-3.32.128-4.06.718-4.286.93-.357 1.131.328 1.131 3.856v3.407h2.91v-3.85c0-5.036-.293-5.675-2.608-5.675-.538 0-1.23.177-1.54.393-.483.339-.58.34-.706.014-.1-.261-.457-.35-1.151-.288-.553.05-1.155.104-1.337.119-.25.02-.33 1.143-.33 4.657v4.63h2.91l.004-2.977zm15.612-10.715c1.609-2.17 4.231-7.386 5.13-10.201 1.476-4.635 1.979-8.784 1.703-14.075-.29-5.595-1.442-9.933-3.947-14.876-7.851-15.49-24.983-23.8-41.862-20.303-4.935 1.022-10.394 3.42-14.505 6.375-2.777 1.995-6.824 6.034-8.77 8.75a38.376 38.376 0 0 0-5.33 34.077c.869 2.699 3.212 7.516 4.595 9.447l1.07 1.494 2.711-.927c17.398-5.945 37.646-5.6 54.702.935 1.528.586 2.869 1.07 2.978 1.077.11.007.796-.791 1.525-1.773zM59.579 173c-.263-.156-.591-.582-.73-.946-.412-1.084 1.432-4.945 4.088-8.556.483-.657.8-1.618 1.09-3.307 1.24-7.226 3.696-12.417 7.714-16.302 4.098-3.963 6.891-5.201 17.74-7.862 3.69-.905 7.12-1.908 8.111-2.372 2.127-.995 3.902-2.6 4.686-4.234l.597-1.245.244 1.059c.347 1.506.027 6.861-.59 9.874-3.023 14.75-12.352 24.07-26.517 26.492-1.66.284-4.68.582-6.709.662l-3.69.146-.712.95c-.39.524-1.192 1.876-1.78 3.006-.587 1.13-1.22 2.18-1.406 2.335-.55.455-1.622.606-2.136.3zm2.095-2.16c4.42-8.77 15.577-20.113 27.87-28.335 1.665-1.114 2.916-2.026 2.778-2.025-.515 0-7.096 3.913-10.1 6.005-4.884 3.401-7.31 5.435-11.6 9.722-5.21 5.208-8.685 9.842-10.397 13.865-.66 1.552-.6 2.157.215 2.157.378 0 .737-.404 1.234-1.389zm-5.797-7.937c-5.462-5.456-6.16-9.48-3.212-18.516 1.262-3.87 1.45-6.034.656-7.589l-.581-1.14 1.656.89c2.056 1.103 6.373 5.315 7.6 7.415 2.31 3.952 3.024 8.84 1.928 13.2-.571 2.275-2.438 6.475-3.395 7.64l-.53.644-.863-2.231c-1.655-4.276-2.462-8.2-3.423-16.651-.22-1.945-.242-1.623-.153 2.381.134 6.09 1.125 11.536 2.78 15.28.272.618.381 1.124.241 1.124s-1.357-1.101-2.704-2.447z" transform="translate(-34.643 -110.692)"/>
</svg>
