<svg width="466.492" height="510.249" viewBox="0 0 123.426 135.003" xml:space="preserve" xmlns="http://www.w3.org/2000/svg">
    <path style="fill:#000;stroke-width:.264583" d="m82.552 224.492-1.588-.315-.327-1.323c-.18-.728-.75-4.061-1.268-7.408-1.168-7.559-2.325-14.517-3.19-19.183-7.168-38.676-17.21-68.26-29.683-87.444-2.99-4.598-6.29-8.615-11.874-14.45-3.2-3.343-3.746-4.095-3.303-4.538.68-.68 6.374 3.095 12.026 7.972 5.231 4.514 11.673 11.58 15.709 17.233 10.556 14.784 18.961 37.585 24.434 66.278 1.238 6.497 1.816 8.619 2.708 9.945.792 1.178 1.574 1.28 2.476.326 1.147-1.216 2.092-3.64 3.913-10.042 8.157-28.676 20.032-52.45 33.881-67.83 2.561-2.844 2.81-3.612 1.14-3.514-3.68.214-10.273 6.198-17.577 15.95-2.9 3.873-4.766 6.085-5.132 6.085-.967 0-.965-7.111.003-11.86 2.061-10.117 8.095-17.893 17.789-22.925 3.036-1.576 7.192-3.06 10.398-3.713 1.164-.237 5.034-.594 8.6-.795 6.201-.348 8.56-.685 11.117-1.587 2.098-.74 2.185-.452 1.198 3.973-.745 3.338-1.101 6.543-1.456 13.095-.51 9.42-3.025 15.789-8.315 21.055-2.548 2.536-4.67 4.016-7.941 5.537-3.795 1.765-8.234 2.883-13.626 3.433-3.901.397-4.933 1.444-8.355 8.472-1.346 2.764-3.049 6.515-3.784 8.334-3.609 8.937-7.67 22.478-11.149 37.174-2.447 10.338-6.108 28.842-6.108 30.87 0 .481-.203.841-.596 1.06-.81.452-8.042.548-10.12.135z" transform="translate(-31.185 -89.751)"/>
</svg>
